<svg width="516" height="201" viewBox="0 0 516 201" fill="none" xmlns="http://www.w3.org/2000/svg">
<mask id="mask0_1_135" style="mask-type:luminance" maskUnits="userSpaceOnUse" x="0" y="0" width="516" height="201">
<path fill-rule="evenodd" clip-rule="evenodd" d="M0 87.4075L495.713 0L515.595 112.756L19.8819 200.163L0 87.4075Z" fill="white"/>
</mask>
<g mask="url(#mask0_1_135)">
<path fill-rule="evenodd" clip-rule="evenodd" d="M257.293 133.05C255.476 133.371 254.519 133.899 254.924 134.353C255.299 134.772 256.74 134.917 258.125 134.673C259.51 134.429 260.577 133.841 260.494 133.371C260.411 132.9 258.97 132.755 257.293 133.05Z" fill="#FFCD00"/>
<path fill-rule="evenodd" clip-rule="evenodd" d="M447.617 101.86C447.041 102.218 446.296 102.317 445.962 102.085C445.627 101.846 446.099 101.558 447.006 101.432C448.015 101.302 448.252 101.469 447.617 101.86ZM438.888 102.8C438.418 102.883 437.727 102.605 437.354 102.185C436.979 101.767 437.056 101.353 437.526 101.27C437.999 101.187 438.693 101.464 439.068 101.883C439.44 102.303 439.361 102.716 438.888 102.8ZM403.002 103.825C400.864 104.202 399.494 103.082 400.736 101.975C401.206 101.562 402.321 101.731 403.214 102.356C404.72 103.413 404.702 103.525 403.002 103.825ZM388.943 86.8135C386.628 87.2831 385.913 86.9934 387.042 86.0509C387.358 85.7847 388.442 85.74 389.453 85.9536C391.055 86.2893 390.989 86.3995 388.943 86.8135ZM381.708 88.3506C378.19 89.2987 372.691 89.3196 374.869 88.3759C376.753 87.5588 385.518 86.205 385.608 86.7116C385.665 87.0212 383.908 87.7574 381.708 88.3506ZM332.416 121.542C329.739 122.032 327.244 122.086 326.869 121.667C326.494 121.248 326.497 120.827 326.871 120.731C327.246 120.633 328.933 120.165 330.611 119.68C332.415 119.162 334.414 119.183 335.478 119.731C337.103 120.561 336.792 120.746 332.416 121.542ZM298.359 116.171C297.67 117.156 291.21 118.407 271.618 121.352C269.487 121.672 266.9 121.633 265.864 121.269C264.828 120.898 260.692 121.107 256.671 121.726C247.013 123.216 245.233 123.369 243.917 122.815C243.311 122.563 242.242 122.698 241.542 123.112C240.707 123.619 240.19 123.409 240.03 122.499C239.896 121.742 239.208 121.226 238.503 121.35C237.797 121.475 237.139 121.143 237.046 120.613C236.927 119.941 238.164 119.611 241.053 119.536C245.075 119.435 253.055 118.057 262.559 115.83C265.428 115.158 268.162 115.079 269.995 115.622C271.589 116.095 276.025 116.107 279.848 115.646C283.674 115.19 287.314 115.097 287.944 115.436C289.096 116.064 291.926 116.061 296.581 115.427C298.412 115.173 298.911 115.384 298.359 116.171ZM215.996 88.7638C214.407 90.4217 210.191 91.445 209.26 90.3967C208.927 90.0236 205.882 90.1634 202.493 90.7104C199.103 91.2522 196.126 91.5532 195.877 91.3761C195.366 91.0185 199.619 88.9201 200.981 88.8586C201.462 88.8351 205.357 88.4706 209.64 88.0486C216.574 87.3696 217.261 87.4455 215.996 88.7638ZM154.139 99.9001C150.718 100.479 147.86 100.607 147.784 100.176C147.709 99.7495 148.533 99.2417 149.616 99.0508C150.699 98.8598 151.896 98.2571 152.275 97.7185C153.288 96.2714 167.662 92.7191 167.864 93.8665C168.147 95.4714 160.562 98.8048 154.139 99.9001ZM144.623 97.272C143.682 98.1282 143.722 98.5822 144.85 99.8461C146.546 101.74 145.634 102.205 135.533 104.567C131.681 105.465 128.506 106.048 128.473 105.86C128.368 105.268 133.406 102.144 137.451 100.29C139.596 99.3043 141.497 98.1297 141.676 97.6824C141.857 97.2268 142.849 96.7161 143.884 96.5416C145.403 96.2845 145.543 96.4277 144.623 97.272ZM209.198 68.2585C210.316 68.0828 210.308 68.2628 209.154 69.231C208.382 69.8841 207.559 70.2823 207.322 70.1162C206.61 69.6155 207.75 68.49 209.198 68.2585ZM212.914 66.6942C213.718 66.5525 213.951 65.6986 213.584 64.2339C213.126 62.4067 213.475 61.7748 215.464 60.8138C218.659 59.2833 220.432 59.6554 220.254 61.8346C220.152 63.0811 220.618 63.5505 221.925 63.5119C222.925 63.4848 223.96 63.8699 224.226 64.3665C224.866 65.5595 222.02 66.8288 216.481 67.8187C214.007 68.2656 211.919 68.2421 211.836 67.7691C211.753 67.2988 212.235 66.8141 212.914 66.6942ZM239.456 66.6536C241.339 66.3296 242.042 66.3895 241.014 66.7814C239.985 67.1733 238.441 67.4376 237.583 67.3675C236.726 67.2975 237.571 66.9781 239.456 66.6536ZM250.124 65.812L256.062 65.679L251.717 67.2471C248.51 68.4015 246.984 68.5854 245.885 67.9611C243.177 66.4186 244.116 65.9387 250.124 65.812ZM260.901 64.4869C263.238 64.0348 266.088 62.7569 267.678 61.4507C270.732 58.9563 273.315 58.1917 274.441 59.4561C274.89 59.9605 276.299 59.8666 277.986 59.2334C280.822 58.1657 281.679 58.7207 280.279 60.7236C279.728 61.511 279.819 61.9399 280.608 62.2539C281.268 62.5213 281.765 61.9432 281.858 60.8076C281.982 59.3016 282.678 58.8058 285.337 58.3369C289.053 57.6816 289.848 58.7113 287.207 60.7652C286.245 61.5077 285.292 62.5098 285.085 62.9833C284.88 63.4672 283.202 64.1068 281.361 64.4101C279.52 64.7134 274.443 65.5713 270.084 66.3134C265.721 67.0532 262.092 67.3255 262.019 66.912C261.946 66.4984 260.758 65.9565 259.382 65.7114C257.066 65.3017 257.183 65.2065 260.901 64.4869ZM290.825 57.9663C292.863 56.7409 298.063 55.9599 298.221 56.8567C298.295 57.2754 297.061 58.0019 295.48 58.4779L295.485 58.477C293.908 58.9496 291.896 59.2191 291.02 59.0724C289.498 58.8266 289.488 58.7723 290.825 57.9663ZM302.506 62.3395C305.414 60.878 306.478 60.749 310.026 61.4345C316.047 62.5899 316.133 63.5046 310.324 64.529C307.522 65.023 303.858 65.1122 302.176 64.7345L299.117 64.0401L302.506 62.3395ZM514.599 111.717C513.882 111.598 512.295 110.742 511.07 109.81C509.846 108.885 508.307 108.195 507.65 108.278C506.992 108.368 504.555 107.819 502.237 107.064C499.916 106.306 496.873 105.433 495.475 105.122C494.072 104.813 492.952 104.078 492.978 103.489C493.006 102.904 491.337 101.391 489.269 100.133C484.899 97.4767 485.202 95.478 489.729 97.1048C491.914 97.8919 493.016 97.8708 493.947 97.0272C495.841 95.3182 494.68 94.4782 490.879 94.8021C489.005 94.9647 486.837 94.7287 486.061 94.2847C484.018 93.1153 482.54 93.1628 474.453 94.6154C470.462 95.335 466.749 95.6913 466.203 95.4039C465.654 95.1169 462.692 95.2768 459.62 95.7599C456.427 96.2563 452.512 96.2511 450.485 95.7425C447.248 94.9303 447.049 94.7255 448.254 93.4738C450.431 91.2059 448.5 91.0295 443.798 93.0764C437.29 95.9 430.584 95.3024 429.81 91.8175C429.735 91.4709 433.604 90.5916 438.41 89.8613C444.38 88.9579 447.2 88.2049 447.309 87.4929C447.397 86.9204 446.977 86.5947 446.377 86.7565C442.819 87.7516 432.957 87.6013 431.85 86.5386C430.772 85.5055 430.427 85.5398 429.377 86.7776C427.93 88.485 414.522 91.4674 411.571 90.7405C409.976 90.3504 410.135 90.2289 412.476 90.0693C414.035 89.9624 415.255 89.5501 415.187 89.165C415.118 88.7774 416.637 87.3532 418.556 85.9994C422.792 83.0142 424.24 80.9016 422.306 80.5284C421.58 80.3872 420 80.8577 418.8 81.5782C415.814 83.3545 410.133 84.2629 409.485 83.0661C409.138 82.4239 406.84 82.4481 402.807 83.1404C399.424 83.7184 396.61 83.9454 396.557 83.6456C396.411 82.8639 391.632 82.9178 381.556 83.8071C376.736 84.2307 372.178 84.2269 371.432 83.8016C370.684 83.3711 367.893 83.1812 365.235 83.3701C362.577 83.5616 360.536 83.3805 360.703 82.9648C361.269 81.5353 358.764 81.3266 351.911 82.2206C348.132 82.7164 344.696 82.9838 344.277 82.8126C343.853 82.6474 338.139 83.2128 331.568 84.0756C316.673 86.0305 312.649 86.1084 312.358 84.4595C312.194 83.5292 313.2 83.0028 316.182 82.461C321.435 81.5001 323.528 79.0553 318.538 79.7005C306.357 81.2809 305.123 81.5703 305.782 82.6639C306.273 83.4833 305.621 83.8782 303.238 84.2211C300.049 84.6795 293.859 84.5158 295.554 84.0171C296.043 83.8749 297.089 83.0535 297.882 82.197C299.184 80.7869 298.543 80.7799 291.195 82.1156C286.724 82.9333 282.458 83.5416 281.718 83.4696C275.81 82.9098 273.588 83.2162 272.837 84.6997C272.159 86.0345 270.984 86.3242 264.206 86.8132C259.889 87.132 253.976 87.402 251.064 87.4224C248.154 87.4372 241.712 88.0935 236.749 88.8752C227.901 90.2729 224.136 90.0014 220.91 87.7429C218.989 86.4001 220.227 85.7556 226.416 84.8747C232.167 84.0606 236.789 81.7827 237.221 79.5481C237.569 77.76 233.685 78.5221 232.286 80.5194C231.431 81.7467 230.01 82.1466 225.29 82.5046C222.034 82.7509 217.448 83.3384 215.107 83.8151C211.383 84.565 211.005 84.493 212.138 83.27C212.851 82.4915 213.399 81.6567 213.355 81.4085C213.312 81.163 210.045 81.739 206.093 82.6891C199.296 84.3246 198.804 84.3288 196.824 82.6794C194.942 81.1193 194.645 81.1022 193.897 82.4972C193.249 83.7174 191.669 84.2598 186.613 84.9967C177.228 86.3559 173.334 86.1551 173.482 84.3089C173.581 83.1003 173.005 82.9301 170.527 83.4336C168.837 83.7743 167.107 84.3484 166.689 84.71C166.268 85.072 164.755 85.8477 163.325 86.4277C160.45 87.5928 158.425 86.5056 161.146 85.2556C163.441 84.2007 162.226 83.0533 158.729 82.9718C156.996 82.9337 156.147 82.5477 156.554 81.9856C156.926 81.4644 158.838 81.0793 160.928 81.0998C163.274 81.1205 164.912 80.741 165.383 80.0691C165.907 79.3238 167.009 79.1534 169.086 79.5067C172.464 80.0756 187.2 77.7011 195.92 75.1803C201.655 73.5241 205.437 73.5261 207.183 75.1928C207.693 75.6812 208.186 75.4531 208.562 74.5659C209.072 73.3462 210.648 73.095 221.104 72.5223C233.238 71.8643 235.082 72.0295 233.297 73.6206C232.575 74.2677 232.877 74.5582 234.394 74.6851C235.543 74.7783 236.547 74.4573 236.625 73.9665C236.701 73.4735 237.145 73.2273 237.616 73.4161C239.486 74.1575 256.798 71.3982 257.826 70.1857C258.635 69.2302 258.903 69.2656 259.096 70.364C259.231 71.129 259.675 71.6956 260.086 71.6232C260.494 71.5512 264.328 71.4854 268.601 71.4807C272.876 71.4703 279.334 70.8726 282.954 70.1543C286.575 69.4413 289.905 68.9954 290.353 69.1642C290.804 69.3351 298.048 69.161 306.457 68.7762C318.016 68.2436 322.285 67.7467 323.981 66.744C325.636 65.7595 326.271 65.6741 326.4 66.4055C326.825 68.7689 346.37 67.902 348.092 65.4426C348.816 64.409 346.783 63.4003 344.705 63.7667C343.472 63.9841 341.215 64.0117 339.693 63.8297C330.692 62.7441 328.31 62.7164 322.855 63.6624C317.417 64.6053 316.768 64.5384 316.257 62.9818C315.369 60.2738 319.036 58.1481 322.717 59.2392C325.298 60.0046 325.755 59.9187 327.435 58.3407C328.596 57.2486 330.235 56.6132 331.813 56.6493C333.197 56.6825 334.486 56.3166 334.679 55.8377C335.18 54.5848 332.36 53.9041 327.311 54.0563C324.894 54.1308 322.561 54.0491 322.126 53.8806C320.496 53.2354 313.31 54.5053 311.477 55.7663C309.906 56.8454 309.375 56.8405 308.491 55.7572C307.731 54.8307 306.821 54.7034 305.411 55.3331C304.188 55.8817 303.343 55.8603 303.24 55.2789C303.148 54.7594 301.801 54.5546 300.245 54.8289C298.692 55.1028 296.98 55.0183 296.442 54.6441C295.904 54.2674 290.812 54.5684 285.123 55.3104C279.437 56.0571 272.402 56.6926 269.495 56.7229C262.045 56.8027 257.486 57.7425 255.809 59.5466C253.631 61.8865 249.669 62.356 248.76 60.3738C248.013 58.7547 246.013 58.4572 245.444 59.8846C245.281 60.2943 244.049 60.7701 242.707 60.9453C241.366 61.1206 238.814 61.4586 237.036 61.6949C234.871 61.9888 233.729 61.7264 233.585 60.9097C233.414 59.938 232.356 59.9539 228.519 60.9848L223.673 62.2871L225.429 60.2666C227.249 58.1656 226.593 56.0296 224.516 57.2805C223.866 57.6723 222.664 57.6098 221.849 57.1433C221.035 56.6845 220.186 56.5519 219.971 56.8615C219.754 57.1716 218.298 57.1326 216.735 56.7818C214.823 56.3489 213.093 56.5261 211.434 57.3355C209.771 58.151 208.719 58.2567 208.197 57.6718C207.669 57.0801 206.431 57.2185 204.258 58.1212C202.518 58.8438 196.567 60.2609 191.038 61.265C181.13 63.0734 180.978 63.0709 180.639 61.1481C180.238 58.8739 178.072 58.8959 177.274 61.1819C176.584 63.1635 174.376 62.3563 174.553 60.1853C174.706 58.301 173.51 58.1254 165.218 58.8202C158.272 59.4001 138.795 62.7385 133.071 64.326C130.757 64.9738 125.441 66.3801 121.261 67.4583C116.716 68.6274 113.183 70.0019 112.48 70.8693C111.699 71.8331 108.359 72.9789 102.522 74.2827C97.6936 75.3579 93.4295 76.6853 93.04 77.2417C92.6573 77.7915 90.8764 78.4972 89.088 78.8125C86.7646 79.2222 85.8973 79.7589 86.0591 80.6763C86.2869 81.9685 85.4694 82.4404 82.6545 82.6463C81.815 82.7064 81.2134 83.2389 81.3177 83.8307C81.4262 84.4458 80.8978 84.3204 80.0828 83.5368C78.7231 82.2337 78.3496 82.2915 71.7012 84.8308C67.8711 86.2923 64.151 87.5158 63.4304 87.555C61.5848 87.6512 56.3494 89.7868 50.7308 92.7415C48.1011 94.1192 44.9328 95.4346 43.6923 95.6533C42.4518 95.8721 41.0546 96.5927 40.591 97.2581C40.1223 97.9243 39.6873 98.1476 39.619 97.7599C39.5511 97.3748 38.9376 97.7042 38.2525 98.4885C37.4087 99.4607 37.1566 99.5425 37.4644 98.7341C37.7833 97.913 37.2551 97.6678 35.7277 97.9371C34.4174 98.1681 33.6213 98.8068 33.7476 99.5227C34.0871 101.448 29.8067 103.423 27.6247 102.353C24.806 100.966 23.5185 101.598 23.9687 104.152L24.3747 106.454L22.2973 104.889C19.5811 102.844 17.992 103.201 16.7276 106.156C16.1584 107.477 14.8187 108.947 13.7494 109.426C11.5264 110.42 11.5138 112.072 13.7149 113.613C14.5457 114.199 15.3262 115.255 15.4506 115.961C15.5755 116.669 16.5238 117.362 17.5528 117.501C18.5875 117.641 19.2897 117.951 19.1182 118.203C18.7112 118.781 13.9685 117.56 13.8423 116.844C13.747 116.304 8.36324 117.568 6.42013 118.592C5.25877 119.199 5.44847 121.484 6.70044 121.98C7.16514 122.168 7.99713 123.335 8.55502 124.579C9.10683 125.82 10.6632 127.861 12.0128 129.107C13.3624 130.354 14.7605 132.252 15.1179 133.327C15.7492 135.23 16.9542 135.958 20.1528 136.356C21.3636 136.513 21.8966 137.496 22.4434 140.597C23.3457 145.714 27.4185 155 29.4913 156.659C30.3603 157.356 32.1952 157.728 33.565 157.487C36.5008 156.969 39.6106 157.83 39.8562 159.223C39.9515 159.763 39.3795 161.205 38.5811 162.419L37.1311 164.639L39.7454 167.783C41.1889 169.517 42.9448 170.846 43.6566 170.742C45.8866 170.407 48.609 172.291 48.2906 173.946C47.8927 175.996 49.8938 177.567 52.3464 177.134C53.4396 176.942 54.6208 177.112 54.9787 177.51C55.6799 178.297 60.3995 177.06 64.2854 175.069C65.6251 174.385 68.8946 173.236 71.5558 172.505C76.459 171.161 79.2221 169.24 82.2883 165.049C83.2247 163.77 84.4169 162.643 84.939 162.551C85.4658 162.456 86.9411 161.559 88.2221 160.557C89.6501 159.437 93.342 158.114 97.7742 157.135C101.749 156.256 107.819 154.634 111.268 153.536C114.717 152.437 123.939 149.79 131.759 147.655C145.054 144.026 146.099 143.85 147.845 144.944C149.545 146.014 150.804 145.837 162.049 142.951C168.832 141.206 174.766 139.36 175.23 138.847C176.719 137.198 180.044 136.119 181.347 136.862C182.079 137.277 183.931 137.112 185.739 136.471C187.46 135.861 191.455 134.533 194.614 133.529C197.769 132.519 200.517 131.462 200.717 131.176C200.917 130.89 201.995 131.476 203.113 132.478C205.384 134.508 209.131 134.311 211.81 132.021C213.106 130.908 213.548 130.83 214.012 131.633C214.327 132.182 215.133 132.538 215.8 132.42C216.467 132.303 216.831 131.74 216.609 131.175C216.309 130.396 218.153 129.836 223.94 128.925C231.47 127.741 233.884 127.558 244.851 127.311C259.565 126.987 262.985 126.645 264.936 125.305C266.496 124.225 267.099 124.169 267.853 125.014C268.648 125.908 269.115 125.836 270.701 124.587C271.776 123.747 273.457 123.213 274.579 123.367C276.399 123.606 276.453 123.735 275.287 124.95C274.189 126.095 274.736 126.297 279.236 126.397C282.104 126.464 290.172 126.291 297.167 126.02C304.164 125.745 312.455 125.464 315.601 125.399C318.746 125.327 327.013 124.89 333.975 124.419C340.935 123.946 347.231 123.657 347.961 123.776C348.695 123.889 352.265 123.854 355.894 123.685C359.524 123.525 365.453 123.266 369.069 123.116C372.683 122.969 378.793 122.661 382.635 122.432C389.196 122.04 395.036 121.916 405.513 121.958C407.944 121.972 412.856 121.662 416.429 121.267C425.436 120.286 421.266 119.7 406.923 119.934C400.628 120.034 389.723 120.166 382.688 120.226C371.552 120.317 344.38 121.225 342.419 121.571C342.036 121.639 341.121 120.814 340.382 119.74C339.235 118.071 339.263 117.608 340.577 116.582C341.421 115.914 343.256 115.09 344.649 114.74C346.311 114.327 346.975 113.757 346.575 113.087C345.787 111.776 355.034 110.676 358.187 111.705C359.623 112.177 364.912 111.612 374.154 110.001C381.752 108.672 388.731 107.83 389.665 108.122C390.598 108.413 393.194 108.491 395.434 108.287C400.732 107.822 409.213 107.819 418.118 108.285C422.043 108.493 427.083 108.511 429.32 108.327C431.556 108.143 433.793 108.154 434.296 108.361C434.8 108.557 439.114 108.633 443.885 108.519C453.923 108.289 459.104 108.402 464.152 108.948C468.16 109.387 474.102 109.584 478.878 109.437C480.603 109.383 482.931 109.935 484.047 110.655C485.327 111.492 487.308 111.756 489.407 111.375C494.457 110.469 498.577 110.488 502.603 111.423C508.415 112.78 514.959 113.396 515.449 112.638C515.697 112.25 515.316 111.841 514.599 111.717Z" fill="#FFCD00"/>
</g>
</svg>
